HIERARCHY
ROOT hip
{
  OFFSET 0 0 0
  CHANNELS 6 Xposition Yposition Zposition Zrotation Yrotation Xrotation
  JOINT abdomen
  {
    OFFSET 0 20.6881 -0.73152
    CHANNELS 3 Zrotation Xrotation Yrotation
    JOINT chest
    {
      OFFSET 0 11.7043 -0.48768
      CHANNELS 3 Zrotation Xrotation Yrotation
      JOINT neck
      {
        OFFSET 0 22.1894 -2.19456
        CHANNELS 3 Zrotation Xrotation Yrotation
        JOINT head
        {
          OFFSET -0.24384 7.07133 1.2192
          CHANNELS 3 Zrotation Xrotation Yrotation
          JOINT leftEye
          {
            OFFSET 4.14528 8.04674 8.04672
            CHANNELS 3 Zrotation Xrotation Yrotation
            End Site
            {
              OFFSET 1 0 0
            }
          }
          JOINT rightEye
          {
            OFFSET -3.6576 8.04674 8.04672
            CHANNELS 3 Zrotation Xrotation Yrotation
            End Site
            {
              OFFSET 1 0 0
            }
          }
        }
      }
      JOINT rCollar
      {
        OFFSET -2.68224 19.2634 -4.8768
        CHANNELS 3 Zrotation Xrotation Yrotation
        JOINT rShldr
        {
          OFFSET -8.77824 -1.95073 1.46304
          CHANNELS 3 Zrotation Xrotation Yrotation
          JOINT rForeArm
          {
            OFFSET -28.1742 -1.7115 0.48768
            CHANNELS 3 Zrotation Xrotation Yrotation
            JOINT rHand
            {
              OFFSET -22.5879 0.773209 7.07136
              CHANNELS 3 Zrotation Xrotation Yrotation
              JOINT rThumb1
              {
                OFFSET -1.2192 -0.487915 3.41376
                CHANNELS 3 Zrotation Xrotation Yrotation
                JOINT rThumb2
                {
                  OFFSET -3.37035 -0.52449 3.41376
                  CHANNELS 3 Zrotation Xrotation Yrotation
                  End Site
                  {
                    OFFSET -1.78271 -1.18214 1.43049
                  }
                }
              }
              JOINT rIndex1
              {
                OFFSET -7.75947 0.938293 5.60832
                CHANNELS 3 Zrotation Xrotation Yrotation
                JOINT rIndex2
                {
                  OFFSET -2.54057 -0.884171 1.56538
                  CHANNELS 3 Zrotation Xrotation Yrotation
                  End Site
                  {
                    OFFSET -1.62519 -0.234802 1.16502
                  }
                }
              }
              JOINT rMid1
              {
                OFFSET -8.24714 1.18213 3.41376
                CHANNELS 3 Zrotation Xrotation Yrotation
                JOINT rMid2
                {
                  OFFSET -3.10165 -0.590103 1.0647
                  CHANNELS 3 Zrotation Xrotation Yrotation
                  End Site
                  {
                    OFFSET -2.48547 -0.328903 0.83742
                  }
                }
              }
              JOINT rRing1
              {
                OFFSET -8.82822 0.546677 1.51678
                CHANNELS 3 Zrotation Xrotation Yrotation
                JOINT rRing2
                {
                  OFFSET -2.60934 -0.819778 -0.0198488
                  CHANNELS 3 Zrotation Xrotation Yrotation
                  End Site
                  {
                    OFFSET -2.33842 -0.294052 0.168128
                  }
                }
              }
              JOINT rPinky1
              {
                OFFSET -8.27202 -0.0477905 -0.4584
                CHANNELS 3 Zrotation Xrotation Yrotation
                JOINT rPinky2
                {
                  OFFSET -1.82734 -0.647385 -0.700984
                  CHANNELS 3 Zrotation Xrotation Yrotation
                  End Site
                  {
                    OFFSET -1.69225 -0.51767 -0.607171
                  }
                }
              }
            }
          }
        }
      }
      JOINT lCollar
      {
        OFFSET 2.68224 19.2634 -4.8768
        CHANNELS 3 Zrotation Xrotation Yrotation
        JOINT lShldr
        {
          OFFSET 8.77824 -1.95073 1.46304
          CHANNELS 3 Zrotation Xrotation Yrotation
          JOINT lForeArm
          {
            OFFSET 28.1742 -1.7115 0.48768
            CHANNELS 3 Zrotation Xrotation Yrotation
            JOINT lHand
            {
              OFFSET 22.5879 0.773209 7.07136
              CHANNELS 3 Zrotation Xrotation Yrotation
              JOINT lThumb1
              {
                OFFSET 1.2192 -0.487915 3.41376
                CHANNELS 3 Zrotation Xrotation Yrotation
                JOINT lThumb2
                {
                  OFFSET 3.37035 -0.52449 3.41376
                  CHANNELS 3 Zrotation Xrotation Yrotation
                  End Site
                  {
                    OFFSET 1.78271 -1.18214 1.43049
                  }
                }
              }
              JOINT lIndex1
              {
                OFFSET 7.75947 0.938293 5.60832
                CHANNELS 3 Zrotation Xrotation Yrotation
                JOINT lIndex2
                {
                  OFFSET 2.54057 -0.884171 1.56538
                  CHANNELS 3 Zrotation Xrotation Yrotation
                  End Site
                  {
                    OFFSET 1.62519 -0.234802 1.16502
                  }
                }
              }
              JOINT lMid1
              {
                OFFSET 8.24714 1.18213 3.41376
                CHANNELS 3 Zrotation Xrotation Yrotation
                JOINT lMid2
                {
                  OFFSET 3.10165 -0.590103 1.0647
                  CHANNELS 3 Zrotation Xrotation Yrotation
                  End Site
                  {
                    OFFSET 2.48547 -0.328903 0.83742
                  }
                }
              }
              JOINT lRing1
              {
                OFFSET 8.82822 0.546677 1.51678
                CHANNELS 3 Zrotation Xrotation Yrotation
                JOINT lRing2
                {
                  OFFSET 2.60934 -0.819778 -0.0198488
                  CHANNELS 3 Zrotation Xrotation Yrotation
                  End Site
                  {
                    OFFSET 2.33842 -0.294052 0.168128
                  }
                }
              }
              JOINT lPinky1
              {
                OFFSET 8.27202 -0.0477905 -0.4584
                CHANNELS 3 Zrotation Xrotation Yrotation
                JOINT lPinky2
                {
                  OFFSET 1.82734 -0.647385 -0.700984
                  CHANNELS 3 Zrotation Xrotation Yrotation
                  End Site
                  {
                    OFFSET 1.69225 -0.51767 -0.607171
                  }
                }
              }
            }
          }
        }
      }
    }
  }
  JOINT rButtock
  {
    OFFSET -8.77824 4.35084 1.2192
    CHANNELS 3 Zrotation Xrotation Yrotation
    JOINT rThigh
    {
      OFFSET 0 -1.70687 -2.19456
      CHANNELS 3 Zrotation Xrotation Yrotation
      JOINT rShin
      {
        OFFSET 0 -36.8199 0.73152
        CHANNELS 3 Zrotation Xrotation Yrotation
        JOINT rFoot
        {
          OFFSET 0.73152 -45.1104 -5.12064
          CHANNELS 3 Zrotation Xrotation Yrotation
          End Site
          {
            OFFSET -1.1221 -3.69964 12.103
          }
        }
      }
    }
  }
  JOINT lButtock
  {
    OFFSET 8.77824 4.35084 1.2192
    CHANNELS 3 Zrotation Xrotation Yrotation
    JOINT lThigh
    {
      OFFSET 0 -1.70687 -2.19456
      CHANNELS 3 Zrotation Xrotation Yrotation
      JOINT lShin
      {
        OFFSET 0 -36.8199 0.73152
        CHANNELS 3 Zrotation Xrotation Yrotation
        JOINT lFoot
        {
          OFFSET -0.73152 -45.1104 -5.12064
          CHANNELS 3 Zrotation Xrotation Yrotation
          End Site
          {
            OFFSET 1.1221 -3.69964 12.103
          }
        }
      }
    }
  }
}
MOTION
Frames:	4
Frame Time:	0.03333
0.005087957323130592 35.58843429297381 0.03161679892564358 -2.732252359390259 7.660398006439209 4.8287529945373535 -2.4566891193389893 14.792684555053711 3.7405600547790527 2.730391263961792 -9.79857349395752 1.166361689567566 -5.143312454223633 15.702289581298828 -3.647930860519409 9.167810440063477 -26.22980308532715 -5.2928547859191895 -0.005442680791020393 -0.015001043677330017 -0.016253577545285225 0.007025713101029396 0.015309047885239124 0.0128498375415802 0.015580082312226295 0.028145262971520424 0.021896962076425552 46.08989334106445 35.801414489746094 18.214134216308594 -28.100465774536133 -32.220706939697266 62.734745025634766 -1.5261448621749878 -10.305126190185547 -1.4092321395874023 -0.017813662067055702 -0.027165034785866737 0.03175411745905876 -0.023140083998441696 0.005934865213930607 0.005955406464636326 -0.0065908064134418964 0.013676066882908344 -0.024624550715088844 7.721800804138184 5.455437183380127 0.40286701917648315 0.0029943997506052256 0.007610216736793518 0.005510917864739895 2.8855464458465576 0.9754431843757629 0.10810868442058563 -0.018303487449884415 0.02875596471130848 0.0207202211022377 10.25757884979248 0.7209460735321045 -0.005821427796036005 -0.00698343338444829 0.009631828404963017 -0.032648056745529175 2.2192535400390625 -0.7270393371582031 -0.22601428627967834 0.0033214096911251545 0.002293953439220786 0.02968771941959858 -52.831764221191406 39.91368865966797 -28.877490997314453 27.556591033935547 -30.7076473236084 -59.3214111328125 1.981966495513916 -14.292308807373047 2.1272876262664795 0.008263058960437775 -0.001317890826612711 -0.022847993299365044 -0.008010193705558777 0.017721405252814293 0.03219590336084366 0.0037326402962207794 -0.01868441328406334 2.571009645180311e-05 -7.7294464111328125 5.502782344818115 -0.4313800632953644 -0.006858082953840494 -0.0018050994258373976 0.005989678204059601 -2.923340082168579 0.9921999573707581 -0.0977814793586731 0.026842083781957626 -0.020518962293863297 -0.02217075601220131 -10.266321182250977 0.7136480212211609 -0.019843829795718193 -0.032846737653017044 0.0379495695233345 0.013806644827127457 -2.2213358879089355 -0.7624943256378174 0.2190002202987671 0.04518308490514755 -0.018484890460968018 0.0021675042808055878 -27.96103858947754 -39.062618255615234 -23.617399215698242 -1.6139812469482422 65.0787353515625 2.6513617038726807 -4.669708728790283 -10.341668128967285 -10.11862850189209 0.011927664279937744 -0.015189297497272491 -0.010799898765981197 32.95090866088867 -37.60212326049805 26.20438575744629 1.7240099906921387 65.87734985351562 -2.898212432861328 5.105593681335449 -10.616531372070312 13.908659934997559
0.006336387837361985 35.5822188208291 0.06877345489733606 -2.6118648052215576 8.607400894165039 4.833521842956543 -2.4755194187164307 14.811710357666016 3.7747278213500977 2.72957706451416 -9.838202476501465 1.2258695363998413 -5.097178936004639 15.701766014099121 -3.6233603954315186 9.177006721496582 -26.29058074951172 -5.329317569732666 -0.007306707091629505 -0.040402255952358246 -0.02440556511282921 0.049534477293491364 0.05295637995004654 0.017325423657894135 -0.00850773323327303 0.03790999576449394 0.06340790539979935 45.83106994628906 35.66826629638672 18.588645935058594 -28.144302368164062 -32.396690368652344 62.917232513427734 -1.5704312324523926 -9.838298797607422 -1.4082392454147339 -0.056794699281454086 -0.053039178252220154 0.043318361043930054 -0.06417451053857803 -0.039209503680467606 -0.01200896967202425 -0.025173695757985115 0.036645252257585526 -0.026399040594697 7.710685729980469 5.421396255493164 0.382267028093338 -0.039082858711481094 0.020870424807071686 -0.008120219223201275 2.910598039627075 0.9787308573722839 0.0798267349600792 -0.05791506543755531 0.04850231111049652 0.057840894907712936 10.246228218078613 0.7000412344932556 -0.054786987602710724 -0.011539500206708908 -0.01045860443264246 -0.06314198672771454 2.2366554737091064 -0.7267742156982422 -0.21095223724842072 0.00029706183704547584 -0.015979113057255745 0.046522580087184906 -53.11327362060547 40.334407806396484 -28.541248321533203 27.698522567749023 -30.90389633178711 -59.52948760986328 1.9967068433761597 -14.724828720092773 2.16821551322937 -0.04457183927297592 -0.03321860358119011 -0.08643410354852676 -0.0419507659971714 0.03524569794535637 0.07820916920900345 -0.006517181638628244 -0.010980213060975075 -0.013634554110467434 -7.711552143096924 5.535209655761719 -0.435899555683136 0.0009987886296585202 0.009680001065135002 0.019150014966726303 -2.9351487159729004 1.0399669408798218 -0.05626239255070686 0.07248886674642563 -0.03879667818546295 -0.034215059131383896 -10.264949798583984 0.6829880475997925 0.015376622788608074 -0.07329966872930527 0.07478396594524384 0.051617737859487534 -2.255211114883423 -0.7613176107406616 0.21124263107776642 0.10143328458070755 -0.055003970861434937 -0.051716241985559464 -28.18962860107422 -39.272972106933594 -23.7342529296875 -1.6515800952911377 65.11634063720703 2.7538881301879883 -4.628836154937744 -10.114429473876953 -10.040928840637207 0.052357640117406845 -0.009366207756102085 -0.0455484464764595 32.686851501464844 -37.46238327026367 26.042577743530273 1.7511026859283447 65.82821655273438 -2.89090633392334 5.0917582511901855 -10.666132926940918 13.970194816589355
-0.134772118763928 30.251433758552565 0.26283057512034336 -13.714555740356445 -29.152795791625977 13.92259693145752 9.919248580932617 8.82990837097168 4.919151306152344 1.816935420036316 -7.728078365325928 1.5830990076065063 -0.838874340057373 12.040092468261719 6.482205390930176 4.028326034545898 -24.301456451416016 12.534695625305176 0.025559337809681892 0.022993234917521477 -0.09048739820718765 0.0063734278082847595 0.34534764289855957 0.007350020110607147 0.025449540466070175 0.03368179500102997 0.1820242702960968 101.60589599609375 45.401058197021484 -51.525352478027344 -27.254653930664062 -43.41355895996094 90.72924041748047 -6.51650857925415 -53.65126037597656 -11.378177642822266 0.04193269833922386 -0.060451313853263855 -0.027941422536969185 -0.3403783440589905 -0.10971487313508987 -0.1317279189825058 0.04003234952688217 0.15673767030239105 0.13053534924983978 7.717614650726318 5.5321736335754395 0.2834000587463379 -0.2921206057071686 0.07703915238380432 0.04105816408991814 2.8201119899749756 1.0926710367202759 0.1800033152103424 -0.10477890074253082 0.1003049910068512 0.16793622076511383 10.266356468200684 0.5988910794258118 -0.1354084312915802 -0.09467813372612 0.3672836124897003 -0.24585379660129547 2.365551233291626 -0.7941759824752808 -0.21899962425231934 0.14956830441951752 -0.23656539618968964 0.11159217357635498 -47.13929748535156 11.379300117492676 -45.276588439941406 12.590493202209473 -6.045923233032227 -22.608036041259766 3.434032678604126 42.38423156738281 -7.604065418243408 -0.2797623574733734 -0.01576605997979641 -0.12565067410469055 -0.013675223104655743 0.19995926320552826 0.295274019241333 0.016444992274045944 0.10130198299884796 -0.08380366861820221 -7.756385326385498 5.569531440734863 -0.4566463530063629 -0.22479288280010223 0.23515787720680237 0.18355152010917664 -3.065451145172119 1.3489575386047363 -0.15904472768306732 0.12105966359376907 -0.1819366067647934 0.10102164000272751 -10.451607704162598 0.6443608403205872 -0.09011553227901459 -0.017388617619872093 0.24235916137695312 0.031857334077358246 -2.239123582839966 -0.5225684642791748 0.1427018642425537 0.29413849115371704 -0.017377888783812523 0.10718358308076859 -11.46782112121582 6.923410892486572 -2.618624448776245 -0.31894394755363464 36.84315872192383 2.626976251602173 -9.060945510864258 -14.910008430480957 -30.364471435546875 0.05534645915031433 0.1822783201932907 0.017069291323423386 77.02593231201172 -53.432621002197266 66.46438598632812 3.47912859916687 73.71520233154297 -3.297861337661743 -0.40565764904022217 0.32989439368247986 -2.346219301223755
0.08619111763174293 29.61265397680546 0.29224924041221967 -14.714871406555176 -29.753610610961914 11.666557312011719 8.614175796508789 9.964827537536621 4.2659735679626465 2.2184879779815674 -7.544090270996094 1.1423877477645874 -0.234391450881958 12.634060859680176 6.867619514465332 3.706760883331299 -25.129676818847656 14.511919021606445 -0.11523343622684479 0.089301198720932 -0.1156492605805397 -0.033516474068164825 0.19855017960071564 0.10743667185306549 -0.1701161116361618 -0.15847711265087128 0.12738876044750214 105.84610748291016 46.367557525634766 -55.01926803588867 -27.067176818847656 -43.72132110595703 90.07535552978516 -5.339114189147949 -53.049949645996094 -10.866129875183105 -0.12425767630338669 0.10056589543819427 -0.06838535517454147 -0.18750207126140594 -0.05625019967556 -0.10087022185325623 0.13703970611095428 0.10522313416004181 -0.004511020611971617 7.691194534301758 5.440849781036377 0.6925786137580872 -0.35076865553855896 0.028272340074181557 0.03922886401414871 3.042074203491211 1.275442361831665 0.08998135477304459 -0.11739800870418549 0.012946626171469688 0.07604308426380157 10.274640083312988 0.7434497475624084 -0.026199884712696075 -0.1448601633310318 0.2554829716682434 -0.17630688846111298 2.3158411979675293 -0.6695020794868469 -0.10793093591928482 0.1315370500087738 0.05529579147696495 0.0998348593711853 -43.610435485839844 13.441349029541016 -42.141414642333984 12.556559562683105 -6.0943193435668945 -22.68658447265625 2.4598567485809326 40.70988082885742 -7.15306282043457 -0.10148108750581741 -0.12764222919940948 -0.07551024854183197 0.0904679000377655 0.19667062163352966 0.1992265284061432 0.1115395650267601 -0.02928909659385681 0.18468718230724335 -7.798666954040527 5.7581024169921875 -0.48190173506736755 0.020782718434929848 0.11553600430488586 0.1212913990020752 -2.885910749435425 1.2575385570526123 -0.31639528274536133 0.16102947294712067 -0.07436102628707886 0.057724252343177795 -10.285737991333008 0.5899752974510193 0.22116687893867493 0.14045529067516327 -0.0802573636174202 -0.023317307233810425 -2.308746337890625 -0.6217637062072754 0.1401628702878952 0.0890299528837204 0.06878801435232162 -0.1942017525434494 -12.402447700500488 5.877397537231445 -1.6880685091018677 -0.24852824211120605 38.9772834777832 2.6423728466033936 -7.5560526847839355 -16.08587646484375 -29.573692321777344 0.11511830985546112 0.19484248757362366 -0.08481445908546448 77.12419128417969 -54.02723693847656 67.06029510498047 2.9747257232666016 73.81204223632812 -3.158910036087036 -0.006118330173194408 1.3921864032745361 -2.026677370071411
